<?xml version="1.0" encoding="utf-8"?>
<!-- Generator: Adobe Illustrator 24.2.0, SVG Export Plug-In . SVG Version: 6.00 Build 0)  -->
<svg version="1.1" id="Laag_1" xmlns="http://www.w3.org/2000/svg" xmlns:xlink="http://www.w3.org/1999/xlink" x="0px" y="0px"
	 viewBox="0 0 2730.7 2730.7" style="enable-background:new 0 0 2730.7 2730.7;" xml:space="preserve">
<g>
	<path d="M1352,2659.9c-23.1,0-28-0.3-44.1-4.1c-20.5-4.8-34.2-9.5-61.2-21.3c-39.9-17.4-78.4-37.7-108.4-57.2
		c-42.9-28.1-72.3-53.9-157.3-137.8c-35.6-35.2-54.1-53.5-59.2-57c-17.5-2.5-54-10.5-66.6-14.7c-15.9-5.2-35.8-14.9-48.4-23.4
		c-12.7-8.5-33.1-28.6-42-41.5c-18.6-27.2-30-59.6-35-99.1l-0.9-7.2l-29.1-25.6c-43.4-38.4-61.8-55.5-103.6-96.6l-28.2-27.7
		l-23.6,4.9c-84.4,17.3-125.7,23.7-152.6,23.7c-9.4,0-17.6-0.8-25-2.4c-29.5-6.5-55-25.9-68.2-51.9c-19.1-37.4-17.1-67.4,0.8-166.4
		c2.9-16.3,6.3-37.2,7.6-46.8l1.4-11.8l-30.2-45c-36.5-54.2-48-72.5-61.7-97.9c-18.9-35-23.1-52-26.7-107.3c-0.7-11.3-3-32.8-5.1-48
		c-0.9-6.9-2.2-15.8-3-20c-3.1-2.6-6.9-6.2-9-8.3l-0.1-0.1c-19.7-20-25.7-47.6-19.3-89.3c5.8-39.1,20.4-72.5,43.2-99.3l5.5-6.5
		l-0.8-34.9c-0.5-20.7-1.1-52.5-1.5-73.6l-0.1-5.5c-0.2-14-0.2-22.2-0.2-27.6c0.1-7.6,0.1-13.7,5.1-18.7c1-1,2.2-1.9,3.4-2.6
		c5.6-17.5,15.3-37.9,23.4-48.1C250.2,1039.6,364,917.9,457,822c236.4-244.2,245.8-254,502-523.2
		c125.1-131.4,125.5-131.9,143.8-154.5l0.5-0.7c15.1-18.4,27.1-30.3,40.1-39.8c23.1-16.9,49.2-27.7,77.7-32.2c4.3-0.7,11-1,19.9-1
		c15.1,0,36.2,1,47,2.9l0.1,0c34.6,6.4,72.1,19.7,111.3,39.4c28.9,14.6,47.9,26.2,73,44.2c34.7,24.8,59.7,46.5,116.1,100.7
		c22.9,22.1,99,95.3,166,159.7c50.7,48.9,138.9,133.8,160,154c8.8,8.4,22,21.2,36.8,35.4c16.8,16.2,35.4,34.1,51.3,49.4
		c99,95.5,125.4,120.4,188.4,177.8c89.1,81.3,145.9,148.7,189.6,225.2c3.8,6.7,7.4,11.9,9,14c4.7,2.9,19.6,12,37.6,22.9
		c102.8,62.1,131.5,86.3,146.4,123.1c10.3,25.9,7.5,55.3-7.5,78.9c-6.6,10.4-23.3,27.6-35.7,36.8c-9.3,7-15.6,10.5-69.7,40.4
		c-20.3,11.2-34.9,19.9-44.6,26.7c-9.6,6.7-12.6,10.3-13.5,11.6c0.9,4.4,8.5,19.3,11.5,25.1c12.6,24.5,17.2,38.5,19.8,59.6
		c3.7,31.1-7.5,65.5-30,92.2c-4.5,5.4-7.9,11.9-13.1,30.3l0,0.1c-7.7,26.6-11.6,32.9-38.1,61.1c-24.3,25.9-63.1,66.3-122.3,127.2
		l-33.5,34.3l0.2,2.2c1,14.1-1.4,65.2-4,84.2c-7.9,57.2-27.8,106.6-59.2,146.8c-31.5,40.3-73.8,70.4-125.7,89.4
		c-40.1,14.7-78.5,21.8-132.5,24.5l-11.5,0.6l-69.1,72.4c-43.4,45.5-72.9,77.1-76.6,81.9c-2.1,3.3-17.8,30.3-55.4,96.2
		c-15,26.4-30.2,53.1-42.2,74.2c-10.4,18.3-18.6,32.7-21.9,38.4c-13.9,24.2-21.7,35.7-33.8,44.3c-9,6.4-18.7,9.3-30.4,9.3
		c0,0,0,0,0,0c-9.8,0-21.3-2.1-37.5-6.7l-3.1-0.9c-3.6-1-7.4-2.1-9.4-2.5c-1.6,1.3-4.3,4-6.9,6.7l-2,2c-8.1,8.3-19.7,18.3-26.3,22.9
		c-15.2,10.6-38.2,21.3-55.9,26.1C1380.1,2659.4,1374.9,2659.7,1352,2659.9L1352,2659.9L1352,2659.9z M1084.6,2315.4
		c33.7,0,66.9,5.2,98.6,15.5c55.8,18.2,108.9,49,177.7,103.1c22.5,17.6,103.8,84.4,112.9,92.8c10.8,10,11.3,10.1,15.1,10.4l0.4,0
		c5.6,0.7,16.4,3.1,24.5,5.4c7.4,2.2,15.3,3.8,18.3,4.2c2-2.6,9.7-14.6,17.9-29.3c13.3-23.4,108.1-190,121.8-213.8
		c7.5-13,44.7-83,62.2-116.5c-3.5-0.5-6.7-1.1-8.8-1.4c-69.1-10.2-90.4-14.4-100-17.9l-37.1,37.3c-45.6,46.2-64.5,66.2-88.2,93.1
		c-15.1,17.2-27.9,28.6-42.8,38c-26,16.5-56.5,24.9-90.7,24.9c0,0,0,0,0,0c-16.1,0-33.3-1.9-51.2-5.5
		c-77.1-15.5-152.9-56-225.3-120.4c-18.8-16.6-91.6-84.9-185.6-173.9c-33.4-31.7-57.3-53.7-66.3-61.6c-12.4,0.8-37.9,2.3-38.2,2.3
		c-9,0.5-16.9,1-23.3,1.4c2.6,8.4,5.7,20,7.4,28.1c3.9,17.7,3.9,19.2,4.9,91.3l0,0.8c0.8,59.3,1.3,73.2,3.1,82.7
		c6.3,34.6,17.9,58.9,36.3,76.5c19.8,18.9,40.5,27.4,88.5,36.6l27.2,5.1h32.5c29.2,0,34.2-0.4,42.9-2.3
		C1040.2,2317.7,1062.2,2315.4,1084.6,2315.4z M1084,2376.9c5.5,4.3,11.6,9,17.9,13.8c114.4,88.2,153.3,112.5,198.2,123.7
		c16.3,4.1,31.2,6.1,45.6,6.1c7.3,0,14.7-0.5,22.3-1.6l-1.5-1.2c-14.5-12-35-28.4-45.7-36.7c-82.6-65-145.2-95.8-209.5-103
		C1106,2377.4,1094.8,2377,1084,2376.9z M266.4,1215.9c16.7,42,40.8,84.2,71.9,125.4c32,42.5,62.2,74.3,140.3,148.1
		c101.4,95.8,168.1,159.3,387.4,369.5c236.4,226.6,251.9,241.3,276.5,261.8c60.3,50.4,115.5,80.3,173.7,94.2
		c19.8,4.7,35.4,6.9,49.2,6.9c13.6,0,25.9-2.2,38.8-6.9c19.7-7.2,28.6-13.4,71.1-57.9c148.8-156.5,244.2-256.8,408.3-428.9
		l94.2-98.8c324.6-340.4,324.6-340.4,346.7-369.1c2.1-2.8,4.5-5.8,7.3-9.4l0.5-0.6c10.9-13.9,16.9-21.6,19.1-27.1
		c1.8-4.5,1.9-9.5,1.8-23.4l0-0.9c-0.1-19.3-0.4-21.9-12-70.4c-6.1-25.8-6.1-25.8-13.8-39.2c-19-32.7-46.2-71.5-71.1-101.3
		c-30.8-37-60.5-67.1-117.9-119.3c-49.8-45.5-76-70.2-175-165.5c-23.9-22.9-54-51.9-83.1-80c-28.4-27.3-55.2-53.2-74.8-72
		c-28.8-27.8-116.5-112.2-177.3-170.7c-121.3-116.9-126.9-122.1-147.7-139.9c-65.3-55.4-128.8-89.7-193.9-105
		c-9.8-2.3-26.6-3.8-41.8-3.8c-8.3,0-15.4,0.5-19.6,1.3c-27.7,5.4-49.5,19.4-70.8,45.3c-20.7,25.3-32,37.6-120.9,131
		C792.6,562.2,716.5,641.6,605,756.7c-174.8,180.4-263.7,274.2-317.1,334.4c-13.6,15.3-20.1,29.4-25.5,56c-1.6,7.8-1.9,12.5-1.2,34
		l0.7,23.7L266.4,1215.9z M1674.3,2115.9c15.1,2.5,36.7,6,64.7,10.2l42.7,6.6l34.7-0.8c88.4-2,118.6-5.7,161.5-19.9
		c53.3-17.4,89.5-43.7,117.3-85.3c20.2-30,32.4-64.5,38.5-108.4c1.6-11.4,2.1-29.2,2.7-86.6l0.7-70.9l-10.4-46.3
		c-3.7-16.6-9.7-43.6-13-59.3C2036.2,1735,1749.5,2035.6,1674.3,2115.9z M703.5,2013c5,4.9,10.5,10.2,15.9,15.5
		c-1.6-5.9-3.5-11.9-5.5-17.8C710.7,2011.3,707.1,2012.1,703.5,2013z M382,1771.1c-1.1,2-3.1,6.1-5.6,12l-0.1,0.1
		c-6.4,14.6-6.8,15.9-9.1,33.1c-1.5,11.8-5.9,37.9-9.4,57.6c-9.7,54.3-11,64-11,86.8c0,18.5,0.5,19.7,2,23.9
		c6.5,17.5,16.2,25.8,34.6,29.4c4.3,0.8,6.2,1.1,8.7,1.1c3.5,0,8.8-0.5,17.9-1.5c26.7-3,54.2-7.8,113.2-19.8
		c42.2-8.6,71.8-16.1,78.8-18.7c3.7-2.5,9.9-3.9,24.8-7.5c11.2-2.7,26.4-6.2,42.6-9.8c41.5-9.3,65-14,69.8-14c0.6,0,1.2,0,1.7,0.1
		c0.1,0,0.3,0,0.5,0c4,0,15.3-0.4,29.3-1.2c2.7-0.2,5.5-0.3,8.4-0.5c-39.4-37.8-118-112.8-165.8-158.4
		c-86.3-82.2-151.9-144.7-179.3-170.8c-11,35.1-34.9,112.9-36.3,118.3c-1.7,6.6-4.7,15.8-7,22.2c-1,2.7-2.4,6.6-3.8,9.7
		C386,1765,384.6,1768.4,382,1771.1z M2169.1,1620.8c2,11.4,11.3,53.9,17.4,80.4c14.4-11.5,37.5-30.1,69.6-56
		c73.6-59.4,85.1-68.9,87.8-73.9c2.9-5.9,8.6-14.3,12.8-19.5c12.1-15.2,16.5-25.8,16.6-40.6c0-14-2-22.3-14.4-46.4
		c-12.6-24.5-16.7-34.9-16.7-50c-21.7,23.2-49.9,53.1-76.3,81l-99.4,104.7l0.2,1.8C2167.1,1606.8,2168.2,1615.1,2169.1,1620.8z
		 M266.3,1534.2c28.6,51.2,44.1,78.3,61.4,107.3c11.4,19.1,15.1,24.5,22.9,33c2.9-9.4,6.6-21,10.5-34c5.1-16.6,12.5-40.3,14.9-50
		c-11.9-14.1-50.7-57.8-60.5-67.9c-17.9-18.3-33.3-27-55.1-30.8c-3.3-0.6-7.8-1.1-11.7-1.4v12.6L266.3,1534.2z M219.3,1429
		c2.5,0.4,10.2,0.4,20.6,0.5c12,0,20.8,0.3,28.5,1.2c-17.5-25.9-33-53.5-44.5-79.4c-6.5,16.6-11.6,40.9-11.8,57.6
		c-0.1,9.5-0.1,9.6,2.1,14.2c1.7,3.4,3.1,4.6,4.1,5.3C218.6,1428.5,219,1428.8,219.3,1429z M2410.9,1157.8
		c5.3,30.7,5.7,58.7,0.8,78.7c-1.2,4.9-1.2,4.9,0.7,13.9c6.3,30.6,2.8,60.1-10.3,88.2c12-7.1,27.2-15.7,47.2-26.7
		c40.5-22.3,49.3-28.4,58-37.7c15.3-16.5,15.2-29.5-0.3-48.1C2499.5,1217.1,2476.7,1198,2410.9,1157.8z"/>
	<path d="M1241.1,85.8c15.4,0,35.2,1.1,44.4,2.7c32.9,6.1,69.5,19.1,107.2,38c27.6,14,45.9,24.9,70.9,42.9
		c34.1,24.4,58.4,45.5,114.4,99.3c22,21.2,96.7,93.1,166,159.7c69.3,66.8,141.3,136.1,160,154c18.7,18,58.3,56.1,88,84.8
		c98.5,95.1,125.2,120.3,188.7,178.1c88.4,80.7,143.5,146,186.7,221.5c4.9,8.7,10.5,16.8,12.4,18.3c2,1.3,19.9,12.3,39.6,24.1
		c98.4,59.5,126.8,82.8,140.1,115.7c8.4,21.1,6.1,45.5-6.3,64.9c-5.6,8.8-21.1,24.7-31.9,32.7c-8.4,6.3-14.3,9.6-68,39.3
		c-45.5,25.1-63.9,38.7-65.7,48.5c-1.2,5.9,1.1,12.1,12.9,35.3c11.7,22.9,15.9,35.3,18.3,54.5c3.2,26.5-6.8,57.1-26.5,80.4
		c-6.7,8-10.8,17.1-16.1,36c-6.9,24-9.5,28.1-34.5,54.8c-25.7,27.5-67.6,70.9-122.1,127.1l-38.4,39.3l0.8,8.9
		c0.9,12.9-1.5,63.3-3.9,81.1c-15.1,109.5-76.1,187.6-174.9,223.9c-38.3,14-75.7,20.9-128,23.6l-17.6,0.9l-73.3,76.8
		c-40.4,42.3-75.6,79.9-78.1,83.7c-2.5,3.7-27.7,47.6-56.1,97.3c-28.3,49.7-57.2,100.4-64.1,112.7c-14,24.4-20.3,32.9-29.3,39.3
		c-6.2,4.3-12.8,6.5-21.6,6.5c-8.5,0-19.1-2-33.2-6.1c-8.8-2.5-13.9-4.1-17.7-4.1c-5.9,0-9.1,3.7-18.8,13.4
		c-7.6,7.7-18.5,17.2-24.1,21.1c-14,9.7-35.3,19.6-51.2,23.9c-11.9,3.2-15.5,3.5-37.7,3.6c-22.5,0-26.1-0.3-40.5-3.7
		c-19.5-4.5-32.5-9.1-58.7-20.4c-38.9-16.9-76.7-36.8-106.1-56c-42.1-27.6-70.8-52.8-154.9-135.9c-60-59.3-61.1-60.3-67.3-61.2
		c-17.2-2.4-53.1-10.4-64.4-14.1c-14.5-4.8-33.1-13.7-44.7-21.6c-11.2-7.5-30.1-26.3-37.9-37.5c-17.1-24.9-27.7-55.1-32.4-92.3
		l-1.6-12.9l-33.5-29.5c-43.5-38.4-61.7-55.5-102.9-96l-34-33.5l-31.6,6.5c-81,16.6-123.1,23.4-149.5,23.4c-8.6,0-15.6-0.7-21.7-2.1
		c-24.8-5.5-46.8-22.1-57.9-43.9c-16.3-31.9-15.9-56.8,2.3-156.7c2.9-16.5,6.4-37.9,7.7-47.6l2.1-17.6l-33.3-49.7
		c-36-53.5-47.6-71.9-60.9-96.7c-17.9-33.1-21.5-47.7-24.9-101.1c-0.8-12.5-3.2-34.5-5.2-49.1c-3.3-24.4-3.9-26.5-6.9-28.5
		c-1.7-1.2-6-5.1-9.5-8.5c-16.1-16.4-20.7-39.5-15.1-76.3c5.5-36.5,18.8-67.1,39.7-91.6l9.3-10.9l-0.9-40.8
		c-0.5-22.5-1.2-58-1.6-78.9c-0.3-28.2-0.4-35.4,0.6-35.4c0.3,0,0.6,0.6,1.1,1.4c1.1,2,1.8,2.9,2.2,2.9c0.3,0,0.5-0.5,0.6-1.6
		c3.3-16.7,15.1-43.6,23.9-54.7c17.9-22.5,131.1-143.7,224.4-240c235.9-243.6,242.9-250.9,502.1-523.3
		c126.5-132.9,125.7-132.1,145.1-156c14.1-17.2,25.3-28.4,37.3-37.2c20.9-15.3,44.9-25.3,71.1-29.5v0
		C1227.2,86.1,1233.6,85.8,1241.1,85.8 M1365.4,2237.2c15.8,0,29.8-2.6,44.1-7.8c23.7-8.7,34.8-17.6,76.9-61.7
		c148.7-156.4,243.5-256,408.3-428.9c455.5-477.7,413.9-433.5,449.2-478.4c25.1-32,24.8-31.5,24.7-61.6
		c-0.1-21.2-0.8-25.3-12.4-73.9c-6.4-27.1-6.8-28.3-15.5-43.3c-18.8-32.4-46.7-72.4-72.7-103.5c-31.6-38-61.7-68.4-119.3-120.8
		c-48.8-44.5-75.1-69.3-174.7-165.2c-46.9-45.1-118-113.6-158-152c-40-38.5-119.7-115.3-177.3-170.7
		c-123.5-118.9-127.5-122.7-148.4-140.5c-67.5-57.2-132.7-92.4-200.4-108.3c-11.5-2.7-29.7-4.2-45.3-4.2c-9,0-17,0.5-22.5,1.6
		c-31.5,6.1-56.1,21.9-79.7,50.7c-20.5,25.1-32.1,37.6-120.1,130.1C778.9,554.3,703.7,632.8,594,746
		c-171.3,176.8-262.7,272.9-317.6,334.9c-15.6,17.5-23.1,33.9-29.1,63.1c-2,9.5-2.3,15.6-1.5,37.6l0.8,26.3l5.5,13.7
		c17.1,43.1,42,86.7,73.9,128.9c32.7,43.3,62.8,75.2,142,150c104.1,98.4,171.9,162.9,387.3,369.5c237.9,228,252.4,241.7,277.3,262.5
		c62.1,51.9,119.7,82.9,180,97.3C1333.2,2234.7,1350.1,2237.2,1365.4,2237.2 M2177.3,1728c0.4,0,40.1-31.9,88.4-70.8
		c85.2-68.8,87.9-71.2,91.9-78.9c2.1-4.5,7.2-12,11.1-16.8c14.3-17.9,19.9-31.9,20-50.1c0-17.5-3.2-28.4-16.1-53.5
		c-13.3-26-15.6-33.2-14.9-47.1c0.5-12.5,4-20,13.9-30.8c11.7-12.7,30-24.4,85.2-54.7c40.3-22.1,51.1-29.2,61.9-40.7
		c20.7-22.3,20.8-43.7,0.3-68.4c-12.3-14.7-45.9-38.7-101.9-72.8c-15.2-9.2-27.9-16.8-28-16.8c-0.3,0,1.2,7.3,3.3,16.3
		c8.1,35.5,9.7,68.5,4.5,89.9c-1.9,7.5-1.9,9.1,0.5,20.7c8.1,39.5-1.6,76.1-29.7,111.2c-4.8,5.9-55.6,60.1-112.9,120.7l-104.3,109.9
		l0.9,8.8c0.5,4.8,1.7,13.5,2.7,19.3C2156.8,1639.7,2176.4,1728,2177.3,1728 M306.3,1457.3c0.3,0-4.8-6.9-11.1-15.5
		c-22.8-30.7-43.5-65.6-57.7-98c-4.4-10-8.4-19.7-8.9-21.7v0c-0.4-1.9-1.3-3.7-1.9-4.1c0,0-0.1,0-0.1,0c-1.5,0-8.7,10.4-12.9,18.7
		c-9.1,18-16.5,50-16.8,72c-0.1,12.1,0.3,14,3.6,21.1c2.7,5.3,5.6,8.8,9.3,11.3c5.3,3.6,5.6,3.6,30.1,3.7c27.1,0,35.2,1.3,54.8,8.5
		C300.8,1455.5,306,1457.3,306.3,1457.3 M357.7,1702.7C357.7,1702.7,357.7,1702.7,357.7,1702.7c0.3-0.4,8.6-26.3,18.2-57.8
		c15.2-49.1,17.3-57.3,15.9-59.5c-4-5.6-53.7-61.9-65.2-73.6c-20.3-20.8-38.4-30.8-63.5-35.2c-6.3-1.1-15.6-2-20.5-2h-9.2v32.3
		l19.6,34.8c29.5,52.7,44.5,78.9,61.6,107.6c13.5,22.7,17.2,27.6,29.1,40C350.7,1696.8,356.9,1702.7,357.7,1702.7 M370.7,1760.7
		C370.7,1760.7,370.7,1760.7,370.7,1760.7C370.7,1760.7,370.6,1760.7,370.7,1760.7c-0.8,0-4.6,7.3-8.5,16.4
		c-6.9,15.7-7.7,18.4-10.3,37.2c-1.5,11.2-5.7,36.8-9.3,56.9c-9.9,55.1-11.2,65.6-11.2,89.5c0,18.7,0.4,22.3,2.9,29.2
		c8.4,22.7,22.4,34.5,46,39.2c4.6,0.9,7.7,1.4,11.7,1.4c4.3,0,9.8-0.5,19.6-1.6c27.3-3.1,54.8-7.9,114.5-20
		c44.7-9.1,82.7-18.5,84.4-21.1c1.4-2,121.2-28.7,128.5-28.7c0.1,0,0.2,0,0.3,0c0.3,0,1,0.1,2,0.1c4.8,0,17-0.5,30.2-1.3
		c16-0.9,32.3-1.7,36.1-1.7c4-0.1,6.9-0.7,6.7-1.2c-0.1-0.7-86-82.7-190.5-182.4h0c-104.5-99.6-191.6-182.5-193.5-184.3l-3.5-3.1
		l-2.1,5.7c-2.5,7.1-40.1,129.1-42,136.4C380,1738.2,372,1760.7,370.7,1760.7 M1780.7,2148.1l36-0.8c89.2-2,121.2-5.9,166-20.7
		c56.3-18.4,95.6-47.1,125.2-91.3c21.5-32,34.5-68.8,40.9-114.8c1.7-12.5,2.3-31.1,2.8-88.5l0.7-72.7l-10.8-48
		c-5.9-26.4-12.5-56.7-14.7-67.2c-2.3-10.5-4.1-19.3-4.4-19.5c0,0,0,0,0,0c-2.2,0-479.3,500.1-478.1,501.3
		c0.7,0.8,40.8,7.5,92.4,15.3L1780.7,2148.1 M942.4,2340h33.9c28.9,0,35.6-0.4,46.1-2.7c20.2-4.4,41.1-6.6,62.1-6.6
		c31.7,0,63.7,5,93.9,14.7c54.3,17.7,105.2,47.3,172.9,100.5c23.9,18.7,103.7,84.4,112,92c12.8,11.9,15.6,13.6,24,14.4
		c4.4,0.5,14.3,2.7,22,4.9c7.7,2.3,17.3,4.4,21.5,4.8l7.3,0.8l5.3-6c2.8-3.3,11.7-17.6,19.7-31.9c12.8-22.5,107.3-188.5,121.7-213.7
		c8.9-15.5,72.7-135.5,72.1-135.9c-0.1-0.1-13.6-2.3-29.7-4.8c-64.8-9.6-91.3-14.4-98.7-17.9l-7.1-3.2l-44.5,44.8
		c-45.5,46.1-64.9,66.7-88.8,93.7c-14,16-25.7,26.5-39.5,35.2c-23.7,15-51.1,22.5-82.5,22.5c-15.1,0-31.2-1.7-48.2-5.2
		c-74.8-15.1-147.3-53.9-218.1-116.8c-19.5-17.2-95.3-88.4-185.2-173.6c-38.5-36.7-70.7-66.1-72-66.1c-1.2,0.1-20.9,1.3-44,2.7
		c-22.9,1.3-42,2.7-42.4,2.9c-0.3,0.4,1.6,6.9,4.1,14.8c2.7,7.7,6.4,21.5,8.3,30.4c3.6,16.3,3.6,17.2,4.5,89.1
		c0.8,61.1,1.3,74.7,3.3,85.3c6.9,37.9,20.1,65.1,40.8,84.8c22.3,21.2,45.7,30.9,96.3,40.5L942.4,2340 M742.9,2071.1l-0.9-7.9
		c-2.5-21.2-8.7-45.1-17.3-67.6c-0.5-1.1-1.8-2.1-3-2.1c-0.1,0-0.1,0-0.2,0c-2,0-46.4,10.1-48.1,10.8c-0.8,0.4,56.4,56,64.9,62.9
		L742.9,2071.1 M1345.7,2535.9c14.7,0,29.3-1.9,44.8-5.6l12-2.9l-26.3-21.5c-14.4-11.9-35.1-28.4-46-36.9
		c-84.7-66.7-150.1-98.7-217.2-106.1c-7.1-0.8-21.4-1.3-32.6-1.3c-7.2,0-13.2,0.2-15.1,0.6c-1.1,0.1-6.1,0.8-11.3,1.2l-9.3,0.9
		l7.3,6.5c4,3.6,22.3,18.1,40.7,32.1c116.8,90,156,114.4,203.7,126.4C1313.8,2533.7,1329.9,2535.9,1345.7,2535.9 M1241.1,55.2
		c-14.7,0-20.4,0.9-22.3,1.2c-31,4.9-59.4,16.7-84.5,35c-14.1,10.4-27,23.1-42.9,42.5l-0.1,0.1l-0.1,0.1l-0.5,0.6
		c-18,22.2-18.3,22.6-143,153.6c-256.2,269.2-265.5,279-502,523.1c-93.2,96.2-207.5,218.4-226.4,242.3c-9.3,11.6-18.5,31-24.4,48.2
		c-0.4,0.4-0.9,0.8-1.3,1.2c-9.3,9.4-9.4,20.5-9.5,29.4c0,5.6,0,13.8,0.2,27.9l0,0.1l0,0.1l0.1,5.6c0.4,21,1,52.8,1.5,73.4l0.7,29.1
		l-1.7,2c-24.7,29-40.4,64.9-46.7,106.9h0c-3.4,22.1-3.5,40.6-0.4,56.3c3.6,18.1,11.6,33.6,23.9,46.1l0.1,0.1l0.1,0.1
		c1,1,3.1,3.1,5.7,5.4c0.7,4.4,1.5,10.3,2,14.1c2,14.9,4.3,35.9,5,46.9c1.8,27.1,3.6,46.2,7.9,63.5c4.5,18.3,11.2,32.7,20.6,50.1h0
		c14,26,25.7,44.5,62.5,99.3l27,40.2l-0.7,6c-1.3,9.5-4.7,30.1-7.5,46.2c-18.4,101.5-20.4,134.8,0.6,176
		c15.3,30,44.7,52.4,78.6,59.9c8.5,1.9,17.8,2.8,28.3,2.8c28.4,0,69.1-6.3,155.7-24l0,0l0,0l15.5-3.2l22.3,22
		c42,41.3,60.5,58.6,104.1,97.1l0,0l0,0l24.7,21.8l0.2,1.4l0,0l0,0c5.3,42,17.5,76.6,37.5,105.8l0,0.1l0,0.1
		c9.9,14.3,31.8,36,46,45.5c13.9,9.4,34.9,19.6,52.2,25.3c12.5,4.1,45.5,11.5,65,14.7c7.5,6.6,27,25.9,54.8,53.4
		c85.9,84.8,115.8,110.9,159.7,139.7l0,0l0,0c30.7,20,70,40.7,110.6,58.4c27.6,12,42.6,17.2,63.8,22.1c17.5,4.2,23.7,4.6,47.7,4.6
		h0.1l0.1,0c23.8-0.1,30.3-0.6,45.5-4.7c19.5-5.2,43.9-16.6,60.7-28.3c7.4-5.1,19.6-15.7,28.5-24.7c0.7-0.7,1.4-1.4,2-2
		c0.2-0.2,0.3-0.3,0.5-0.5c0.3,0.1,0.5,0.1,0.8,0.2c1,0.3,2,0.6,3.1,0.9c17.5,5,30.4,7.3,41.6,7.3c14.8,0,27.7-4,39.2-12.1l0,0l0,0
		c14.6-10.3,23.2-22.9,38.3-49.1l0-0.1l0-0.1c3.2-5.7,11.5-20.2,21.9-38.5c12.1-21.3,27.2-47.7,42.2-74.1c35.1-61.5,51-89,54.6-94.8
		c5-5.9,30.5-33.5,75.2-80.2l64.9-68l5.4-0.3v0c55-2.8,95.9-10.4,137-25.4c54.7-20.1,99.2-51.8,132.5-94.4
		c33.1-42.3,54-94.2,62.3-154.1l0,0l0,0c2.3-17,4.8-62.6,4.3-82.6l28.7-29.4l0,0l0,0c59.2-61,98.2-101.5,122.5-127.5
		c12.5-13.3,21.2-22.8,27.6-33c7-11.1,10.3-21.6,14-34.2l0-0.1l0-0.1c4.9-17.3,7.6-21.6,10.1-24.6c25.2-29.9,37.7-68.6,33.5-103.8
		l0-0.1l0-0.1c-2.9-22.9-8.1-38.6-21.4-64.7c-3-5.8-5.3-10.5-7-14.1c1.9-1.5,4.5-3.3,7.9-5.6c9.2-6.1,22.1-13.7,39.4-23.3
		c54.9-30.4,61.3-34,71.5-41.6c12.3-9.1,31.1-27.7,39.4-40.8c17.7-27.7,21-62.4,8.9-92.8l0-0.1l0-0.1
		c-17.5-43.3-53.5-70.5-152.7-130.5l0,0l0,0c-15.2-9.1-28.5-17.3-34.8-21.2c-1.6-2.3-3.9-5.9-6.3-10.1l0,0l0,0
		c-22.7-39.7-48.8-76.8-79.6-113.3c-30.5-36.1-67.5-74-113.1-115.6c-62.9-57.3-89.2-82.2-188-177.5c-15.9-15.3-34.6-33.4-51.5-49.6
		c-14.6-14.1-27.8-26.8-36.5-35.2l0,0l0,0c-21.2-20.3-109.3-105.2-159.9-153.9c-66.8-64.2-142.9-137.5-166-159.7
		c-57.1-54.9-82.4-76.9-117.8-102.2c-25.7-18.5-45.3-30.3-74.9-45.3l-0.1,0l-0.1,0c-40.5-20.3-79.3-34-115.3-40.7l-0.1,0l-0.1,0
		C1279.1,56.2,1256.9,55.2,1241.1,55.2L1241.1,55.2z M277.2,1201.5l-0.6-20.9l0-0.1l0-0.1c-0.8-21.3-0.4-24.4,0.8-30.1l0-0.1l0-0.1
		c5.5-26.7,11.7-37.4,21.9-48.8l0,0l0,0c53.2-60.1,142-153.7,316.7-333.9c111.6-115.1,187.6-194.6,428.3-447.5
		C1133.6,226,1144.9,213.7,1166,188c19.1-23.3,37.6-35.3,61.9-40c2.5-0.5,8.2-1,16.7-1c14,0,29.7,1.4,38.3,3.4
		c62.8,14.7,124.1,48,187.5,101.8c20.5,17.5,26,22.8,147,139.3c61.4,59,148.7,143,177.3,170.7l0,0l0,0c19.6,18.8,46.4,44.6,74.8,72
		c29.1,28.1,59.3,57.1,83.2,80c98,94.3,125.8,120.6,175.2,165.7c56.8,51.7,86.2,81.4,116.4,117.8l0,0l0,0
		c24,28.7,51.3,67.6,69.6,99.1c4,6.9,5.2,9.2,6.2,12.1c1.4,4,3.1,11,5.9,22.9l0,0l0,0c11.4,47.9,11.4,49.3,11.6,66.9l0,0.9
		c0,8.8,0.1,15.7-0.7,17.6c-1.4,3.5-8.3,12.2-17,23.3l-0.5,0.6c-2.9,3.6-5.2,6.7-7.3,9.4c-21.7,28.1-21.7,28.1-345.7,367.9
		c-28.8,30.2-60.1,63-94.2,98.8c-163.9,171.9-259.2,272.2-408.3,428.9c-40.5,42.4-48,47.8-65.2,54.1c-11.3,4.1-21.6,6-33.5,6
		c-12.5,0-27-2.1-45.6-6.5c-55.8-13.3-109-42.3-167.4-91c-24.3-20.2-39.7-34.9-275.8-261.1c-219.3-210.2-286-273.7-387.5-369.6
		c-77.4-73.1-107.1-104.5-138.6-146.2c-30.2-40.1-53.7-81-69.8-121.8L277.2,1201.5L277.2,1201.5z M2426.3,1241.5
		c0.1-0.3,0.2-0.7,0.3-1.2l0-0.1l0-0.1c3.5-14.4,4.6-32.4,3.3-52.4c45.7,29.2,60.5,42.5,65.3,48.2c7.4,8.9,8.2,13.7,8.2,15.3
		c0,2.9-2.7,7.5-7.3,12.5c-7.5,7.9-15.6,13.5-54.2,34.8c-4.7,2.6-9.1,5-13.3,7.3c3.3-19,3-38.5-1.2-58.5
		C2427.2,1246.1,2426.6,1243.2,2426.3,1241.5L2426.3,1241.5z M227.5,1414c0-1.1,0-2.7,0-5c0.1-4.2,0.5-9,1.2-14
		c3.5,6.4,7.2,12.8,11,19.1C235.1,1414.1,230.8,1414.1,227.5,1414L227.5,1414z M2182.5,1606l94.4-99.5
		c16.8-17.8,37.4-39.5,56.4-59.7c2.9,7.3,6.9,15.3,11.9,25.2l0,0l0,0c11.6,22.4,12.7,28.6,12.7,39.3c-0.1,9.7-2.2,17.2-13.2,31
		c-3.5,4.4-10.3,13.6-14.4,21.8c-5.5,6-37,31.4-83.9,69.3c-20.1,16.2-37,29.8-50.4,40.6c-5.1-22.8-10.3-47.3-11.8-55.6
		C2183.7,1614.7,2183,1610,2182.5,1606L2182.5,1606z M345.1,1640.6c-1.3-2.1-2.6-4.4-4.2-7c-17.2-28.9-32.7-55.9-61.2-106.9l0,0l0,0
		l-9.4-16.7c12.3,4.1,22.3,11,34.3,23.3c8.2,8.4,39.4,43.5,54.6,61c-3.3,11.6-9,30.1-12.6,41.5l0,0.1l0,0.1
		C346,1637.5,345.6,1639.1,345.1,1640.6L345.1,1640.6z M412.5,1735c1.5-5.5,17.1-56.5,28.7-94c33.5,31.9,91.2,86.8,161.4,153.8
		c38.8,37,98.1,93.6,140,133.7c-0.4,0-0.8,0-1.1,0c-0.8-0.1-1.6-0.1-2.4-0.1c-3.3,0-8.9,0-73.2,14.3c-16.3,3.6-31.6,7.2-42.9,9.9
		c-6.2,1.5-11.2,2.8-14.8,3.7c-3.9,1.1-8.4,2.3-12.8,4.7c-7.4,2.4-34,9.3-75.4,17.7c-58.5,11.9-85.7,16.6-111.8,19.6
		c-8.4,0.9-13.4,1.4-16.2,1.4c-1.2,0-2.1-0.1-5.8-0.8c-13-2.6-18.4-7.2-23.1-19.7c-0.8-2.1-1-3.1-1-18.6c0-20.6,0.8-28.7,10.7-84.1
		c3.6-19.9,8-46.3,9.6-58.4c2.1-15.6,2.1-15.6,7.9-28.8l0.1-0.1l0.1-0.1c1.8-4.1,3.3-7.3,4.2-9.2c1.3-1.6,2.6-3.5,3.7-5.6
		c0.8-1.5,1.6-3.2,2.5-5.3c1.5-3.5,3.1-7.7,4.1-10.6C407.5,1751.8,410.7,1742.1,412.5,1735L412.5,1735z M1705.3,2105.4
		c88.5-93.8,309.6-325.5,399.3-418.7c2.5,11.2,5,22.6,6.9,31.2l0,0l0,0l10,44.5l-0.6,69.1c-0.5,55.9-1.1,74.1-2.5,84.6
		c-5.8,41.5-17.2,73.9-36,101.9c-25.8,38.5-59.5,63-109.2,79.3l0,0l0,0c-41.2,13.6-70.6,17.2-157.1,19.1l-33.3,0.7l-41.3-6.4l0,0
		l0,0C1727.8,2108.9,1715.8,2107.1,1705.3,2105.4L1705.3,2105.4z M796.3,2017.7c1.4-0.1,2.8-0.2,4.3-0.3c7.6-0.4,21.5-1.2,32-1.9
		c11,9.9,32.9,30.1,61.1,56.9l0,0l0,0c94.1,89.2,167.1,157.6,186,174.3c26.8,23.8,54.3,44.6,81.9,62.1c-25.1-5.9-50.9-8.9-77-8.9
		c-23.4,0-46.6,2.5-68.7,7.3c-6.9,1.5-10.6,2-39.6,2h-31l-25.8-4.8c-49.4-9.4-65.4-18-80.8-32.6c-16-15.2-26.1-36.9-31.8-68.1l0-0.1
		l0-0.1c-1.5-8.2-2.1-23.2-2.8-80.1l0-0.8c-0.9-72.2-1-75.2-5.2-94.4C798.1,2025.2,797.3,2021.5,796.3,2017.7L796.3,2017.7z
		 M1598.9,2216l30.6-30.8c12.7,3.2,35.2,7.1,80.7,14c-18.8,35.7-45.8,86.4-51.9,96.8l0,0.1l0,0.1
		c-15.2,26.5-109.4,192.1-121.8,213.8l0,0.1l0,0.1c-4.3,7.6-8.4,14.6-11.6,19.6c-2.2-0.5-4.5-1.2-6.8-1.8c-8.7-2.6-20-5.1-26.5-5.9
		c-1.5-1.3-4-3.4-7.2-6.5l0,0l0,0c-9.5-8.8-90.3-75.2-113.8-93.6c-28.1-22.1-53.7-40.4-78-55.6c6.6,1.7,13.2,3.2,19.8,4.5
		c18.9,3.9,37.2,5.8,54.2,5.8c37.1,0,70.4-9.2,98.9-27.3c16.2-10.2,29.9-22.4,46-40.8l0,0C1534.7,2281.9,1553.6,2262,1598.9,2216
		L1598.9,2216z M1324.7,2503.7c-6.7-0.9-13.6-2.3-20.9-4.1c-25.8-6.5-45.5-16.8-67.2-30.3c-23.6-14.6-53.5-36-100.2-71.5
		c52.4,11.7,106.4,41.4,174.9,95.3l0.1,0l0.1,0C1314.9,2495.9,1319.6,2499.6,1324.7,2503.7L1324.7,2503.7z"/>
</g>
</svg>
