<svg xmlns="http://www.w3.org/2000/svg" viewBox="0 0 2048 2048"><defs><style>.cls-1{isolation:isolate;}.cls-2{fill:#d9a75d;}.cls-2,.cls-3,.cls-4,.cls-5,.cls-6{stroke:#000;stroke-miterlimit:10;stroke-width:22.32px;}.cls-3{fill:#ec918d;}.cls-4{fill:#b96b34;}.cls-5{fill:#e5dc5d;}.cls-6{fill:#ba9553;}.cls-7{opacity:0.1;mix-blend-mode:darken;}.cls-8{opacity:0.25;}</style></defs><g class="cls-1"><g id="Laag_1" data-name="Laag 1"><g id="KyRewV.tif"><path class="cls-2" d="M173.63,908.25c-.22-16.87-3.15-34.28.1-50.45,3.48-17.33,9-36.9,20.22-49.56,48.51-54.5,99.14-107.11,149.59-159.84,57.72-60.32,116.35-119.76,174.08-180.06q149-155.61,297.26-311.84c10.48-11,20.86-22.25,30.13-34.27,40.74-52.89,93-55.39,150.91-35.88,62.22,21,113.12,59.34,159.75,104.05,93.26,89.43,186.06,179.33,279.31,268.77,65.42,62.75,129.93,126.54,197.34,187.09,56.66,50.88,105.63,107,141.55,174.21,6.5,36.66,22.87,72.43,9.9,110.82-17.11,21.07-32.88,43.41-51.52,63q-313.68,329.85-627.8,659.28c-31.25,33-67,41-109.17,33.06-75-14.18-133.43-57.45-186.83-108.27C645.6,1423.44,484.36,1266.8,320.56,1112.87,257.69,1053.78,203,990.57,173.63,908.25Z"/><path class="cls-3" d="M1268.06,1749.24c-29.59,51.92-59.38,103.74-88.7,155.81-18.07,32.09-20.3,33.14-57,22.13-6-1.8-12.47-1.86-18.73-2.72l-29.14-25.25c-24.54-20-48.71-40.44-73.71-59.85-70.82-55-145.75-97.1-240.64-72.93l-56.69-.36c-18-3.7-36.51-5.78-53.89-11.39-57-18.41-77.34-62.86-81-118.3l-.33-55.86a183.3,183.3,0,0,0-19.46-99.13l89.83-4.93c60.69,57.38,121,115.18,182.2,172,47.6,44.16,100.45,80.25,165.06,94.81,45.49,10.25,86.35,6.25,120.1-33.09,33.91-39.53,72-75.46,108.27-113,6.24,3.14,12.18,8,18.77,9.15,34.36,5.93,68.89,10.92,103.35,16.24q-31.9,59.84-63.83,119.67l.35-.49Z"/><path class="cls-4" d="M1214.22,1597.2c-36.26,37.5-74.36,73.43-108.27,113-33.75,39.34-74.61,43.34-120.1,33.09-64.61-14.56-117.46-50.65-165.06-94.81-61.23-56.8-121.51-114.6-182.21-172q-160.19-152.78-320.36-305.55c-61.56-59-118.37-121.25-143.61-205.59q-.5-28.55-1-57.07c29.37,82.32,84.06,145.53,146.93,204.62,163.8,153.93,325,310.57,487.89,465.51,53.4,50.82,111.84,94.09,186.83,108.27,42.21,8,77.92-.11,109.17-33.06q313.21-330.27,627.8-659.28c18.64-19.61,34.41-41.95,51.52-63,13,37.85-.38,68.41-26.22,95.64q-78.57,82.78-157,165.68c-47.67,49.57-95.51,99-143,148.76Q1335.7,1469.11,1214.22,1597.2Z"/><path class="cls-5" d="M1214.22,1597.2q121.64-127.93,243.31-255.83c47.47-49.77,95.31-99.19,143-148.76,1.68,11.79,2.71,23.73,5.15,35.36,6.28,29.93,13.18,59.73,19.83,89.58q-.24,28.08-.47,56.17c1,44.24-.23,88-18.52,129.65-30.12,68.59-86.63,100.31-156.59,112.79-20.32,3.62-41.29,3.65-62,5.32l-51.61,1.11c-34.46-5.32-69-10.31-103.35-16.24C1226.4,1605.21,1220.46,1600.34,1214.22,1597.2Z"/><path class="cls-5" d="M318.22,1170.9l320.36,305.56-89.81,4.93-68.19,15.33-47,13.74c-43.79,8.06-87.3,19.17-131.46,23.28-40.56,3.77-67.23-23.47-65.42-64.83,1.46-33.2,9.62-66.09,14.72-99.13,1.45-9.41,2.6-18.86,3.89-28.29l18.39-42q17.29-56,34.57-111.94Z"/><path class="cls-3" d="M1625.49,1317.55c-6.65-29.85-13.55-59.65-19.83-89.58-2.44-11.63-3.47-23.57-5.15-35.36q78.51-82.84,157-165.68c25.84-27.23,39.25-57.79,26.22-95.64,13-38.39-3.4-74.16-9.9-110.82,36.38,23,74.81,43.41,108.65,69.71,43.73,34,38.42,72.75-9.9,100.37-23.61,13.5-48.16,25.53-70.88,40.38-25.33,16.56-28.58,28.84-13.59,54.22,20.28,34.32,22.16,66-5.72,96.94-3.53,3.92-5,9.72-7.37,14.65Z"/><path class="cls-4" d="M703.47,1766.07l56.7.35c11.8,10.84,22.76,22.79,35.53,32.31,40.89,30.51,80.38,63.71,124.31,89.11,47.89,27.7,101,35.11,154.5,11.37l29.14,25.25c-38.81,51.7-91,58.76-146,36.28-41.72-17.06-83.52-38.4-118.55-66.29C790.57,1855.82,748.37,1809.24,703.47,1766.07Z"/><path class="cls-2" d="M308.23,1187.57l-34.56,111.94c-13.12-13.8-29-25.88-38.81-41.7-25.37-40.79-48.08-83.24-71.85-125l0-36.7c33.67-5,64,2.39,88,27.18C270.94,1143.86,289.22,1166.07,308.23,1187.57Z"/><path class="cls-3" d="M308.23,1187.57c-19-21.5-37.29-43.71-57.23-64.31-24-24.79-54.29-32.19-88-27.18-21.56-6-28.55-23.78-27.2-42.22,2.43-33.41,12.22-65,38.77-88.54,25.24,84.34,82.05,146.63,143.61,205.59Q313.22,1179.22,308.23,1187.57Z"/><path class="cls-6" d="M433.54,1510.46l47-13.74,87.63,83.8.33,55.86c-22.64-20.1-45.68-39.77-67.81-60.42C477.88,1554.62,455.9,1532.33,433.54,1510.46Z"/><path class="cls-6" d="M1625.49,1317.55l149.57-120.81c-4.41,11.84-5.79,26.5-13.73,35.07-44.56,48.12-90.71,94.77-136.31,141.91Q1625.26,1345.64,1625.49,1317.55Z"/><path class="cls-6" d="M163,1132.78c23.77,41.79,46.48,84.24,71.85,125,9.84,15.82,25.69,27.9,38.81,41.7l-18.4,42c-26.86-41.35-57.38-80.89-79.12-124.78C164.16,1192.5,166.91,1161,163,1132.78Z"/><path class="cls-6" d="M1336.34,1622.59l51.61-1.11-115.44,120.78Q1304.43,1682.42,1336.34,1622.59Z"/><path class="cls-6" d="M1268.06,1749.24l4.8-7.47Z"/><path class="cls-2" d="M1074.51,1899.21C1021,1923,967.9,1915.54,920,1887.84c-43.93-25.4-83.42-58.6-124.31-89.11-12.77-9.52-23.73-21.47-35.53-32.31,94.88-24.16,169.81,17.95,240.63,72.94C1025.8,1858.77,1050,1879.23,1074.51,1899.21Z"/><path class="cls-2" d="M568.22,1580.52l-87.63-83.8,68.18-15.33A183.38,183.38,0,0,1,568.22,1580.52Z"/></g><g id="hnCi3S.tif" class="cls-7"><path d="M946.31,421.7l-8,8.53Q801,577.25,663.72,724.29c-9.31,10-17.19,22.08-35.1,17.61,1.41,12.05,2.65,22.67,4,33.89a45.49,45.49,0,0,0,6.31.56q97.43-5.43,194.84-11a46.68,46.68,0,0,1,44,25c8.44,16.33,6.34,36.11-6.26,48.06-4.26,4-10.39,6.76-16.25,8.4C765.21,872.1,675,897,585,922.42c-7.37,2.09-14.45,6.53-20.2,11.52-27.3,23.71-59.32,33.46-96.71,28.64l-15.21-1.94c-.89,11.12-1.75,21.83-2.6,32.48,32.35,8.45,82.93,9.78,132.67-28l154.56,144.44c-27.83,21.25-59.27,29.33-94.7,23.19-12.26-2.13-24.41-6.75-36.18-11.48-14.07-5.65-18-5.5-28,5.13-5.89,6.28-11.76,12.59-18.22,19.51L301.81,904.28l7.2-7.72c59.31-63.49,117.81-127.76,178.39-190,19.48-20,44.19-35.08,66.94-51.84q160.88-118.47,322-236.65c3-2.24,5.47-5.28,8.5-7.55C903.29,396.65,928.57,400.8,946.31,421.7Zm-171.7,367c4.06,19.59,8,38.41,12,57.69l33.51-4.85c-4.06-19.69-7.88-38.21-11.9-57.65Z"/><path d="M895.45,1097.23,710.22,924.12c3.59-1.26,6.37-2.41,9.28-3.22,30.7-8.58,61.52-16.81,92.06-25.85,7.49-2.22,12.18-.69,17.93,4.85,22.31,21.46,45,42.48,67.76,63.52,24.2,22.43,54.72,22.26,76.06-.31,10.66-11.27,21.3-22.56,31.76-34,19.13-21,17.39-52.19-4.5-72.87q-55.08-52-110.7-103.4c-18.1-16.7-39.46-23.34-63-21.34-7.7.65-15.41,1.19-25.28,2l279.6-299.33,231.57,216.42Zm186.44-457.88c-33.11-18.35-64.62-18.12-95.18.14L973.35,627l-22,23.55,154.32,144.22,22.08-23.64-13.55-12.66c16.47-32.24,13.86-63.69-6.49-95.31l11.54-12.35-25.67-24Z"/><path d="M616.84,949.53c17.39-4.88,33.4-9.89,49.79-13.57,3.51-.78,9.35,2.25,12.54,5.22Q780,1034.89,880.48,1129c14.85,13.88,21.77,13.87,34.77,0l430.68-461.08c13.11-14,12.68-20.91-2.06-34.69l-248-231.8c-14.2-13.26-21.4-13.2-34,.3Q909.32,565,756.92,728.36c-5,5.36-10.06,8.44-17.89,8.44-12.45,0-24.83,1.14-38.81,1.89,1.92-2.81,2.92-4.75,4.35-6.29q172.93-185.23,346-370.38c14.58-15.6,34.68-15.77,51.2-.35q141.07,131.65,282,263.52c17,15.94,17.38,35.55,1.43,52.63q-219.91,235.47-439.86,470.91c-10.59,11.34-21,22.86-31.84,34-13.1,13.41-33.44,13.67-48.11,0q-123-114.57-245.64-229.5A37,37,0,0,1,616.84,949.53Z"/><path d="M860.11,883.3c41.14-20.76,41.14-20.76,57.69-59.1,20.56,19.22,41.21,38,61.17,57.45,6.87,6.7,7,15.44,1,22.26-11.15,12.67-22.73,25-34.54,37-6.38,6.52-15.11,7.32-22.22,1C901.84,922.89,881.22,903,860.11,883.3Z"/><path d="M1086.33,732l-70.53-65.91c13.45-10.17,38.09-7.32,54.47,6.11C1088.45,687.1,1095.3,711.31,1086.33,732Z"/></g><g class="cls-8"><path d="M919.12,1392.94,908.24,1386l71.2-79.92a17.06,17.06,0,0,1,11.87-4.75c4.49,0,8.05,1.32,10.68,4a8.82,8.82,0,0,1,2.57,6.53c0,2.64-1.18,5.41-3.56,8.31l-35,31.45q74.76,64.89,134.29,119.69,4.15,7.71-.79,12.66-3.55,3.55-9.79,4a16.82,16.82,0,0,1-11.18-2.87q-10.27-11.07-32-32.83-8.1-8.11-24.42-24.24t-24.43-24.23q-23.53-23.55-41.73-43.33Q932,1381.27,919.12,1392.94Z"/><path d="M1112.51,1332.44l-10.18-10.19q-3.46-3.45-10.29-10.88t-10.48-12.07q-3.66-4.63-9.3-12.26a72.07,72.07,0,0,1-8.11-13.26q-2.46-5.62-5.53-12.85a34.9,34.9,0,0,1-3.07-13.56,97.9,97.9,0,0,1,.89-12.95,35.79,35.79,0,0,1,4.65-13.16,61.41,61.41,0,0,1,9.89-12.66q12.26-12.27,26.2-16.52a56.69,56.69,0,0,1,26.41-2.08q12.47,2.19,26.2,9.8a156.19,156.19,0,0,1,24.33,16.42q10.59,8.8,22.25,20.47,7.92,7.92,14,14.54t13.15,15.53a132.22,132.22,0,0,1,11.57,16.72,105.92,105.92,0,0,1,7.71,17,51.81,51.81,0,0,1,3.27,17.31,44.38,44.38,0,0,1-3.56,16.82,49.58,49.58,0,0,1-11.08,16.22q-12.27,12.27-24,18.1t-22.75,6.13q-11,.3-22.94-5.14a118.22,118.22,0,0,1-23.54-14.44A282.44,282.44,0,0,1,1112.51,1332.44Zm77.14-74a202.71,202.71,0,0,0-21.67-18.69,235.58,235.58,0,0,0-27.5-17.59q-15.54-8.58-30.69-8.67a34.69,34.69,0,0,0-25.67,10.45q-7.95,7.93-3.42,24.58a109.58,109.58,0,0,0,15.11,32.37,182.81,182.81,0,0,0,22.24,27.41q8.12,8.1,12.46,12.26t12.76,11.38a114.61,114.61,0,0,0,14,10.67,107.17,107.17,0,0,0,14,7q8.32,3.55,14.85,3.55a42.55,42.55,0,0,0,14.27-2.8,41.64,41.64,0,0,0,14.48-9.14q13.7-15.27,5.41-37.86T1189.65,1258.45Z"/><path d="M1311.35,1243.76l-8.22-13.76q26.52-7.9,43.12-24.53,11.87-11.87,15.41-25.14t-7.37-24.18q-9.72-9.74-24.88-10.65a106,106,0,0,0-31.4,3q-16.23,3.95-32.75,7.6a92.81,92.81,0,0,1-33,1.38,47.67,47.67,0,0,1-28-13.75q-14-14-15.52-35.71t12.76-35.9q10.88-10.87,28.57-19.88a264.81,264.81,0,0,1,31.16-13.75l5.53,10.28q-30.26,14.85-45.68,30.27a32.84,32.84,0,0,0-10.09,22.36q-.6,12.86,9.1,22.55a34.17,34.17,0,0,0,17,9.49,52.33,52.33,0,0,0,20.07.5,196.13,196.13,0,0,0,21.95-5q11.58-3.26,23.64-5.83a144,144,0,0,1,23.64-3.07,59,59,0,0,1,23.73,4.16,64.65,64.65,0,0,1,22.64,15.13q14.84,14.83,14.74,33.73t-15.33,34.12a163.91,163.91,0,0,1-31.42,24.17Q1322.38,1242.53,1311.35,1243.76Z"/><path d="M1317.14,994.83l-10.88-6.93,71.2-79.92a17,17,0,0,1,11.87-4.75q6.72,0,10.68,4a8.85,8.85,0,0,1,2.57,6.53q0,4-3.56,8.31l-35,31.45q74.76,64.89,134.3,119.69,4.15,7.71-.79,12.66-3.57,3.56-9.79,4.05a16.81,16.81,0,0,1-11.18-2.87q-10.29-11.07-32-32.84-8.1-8.1-24.43-24.23t-24.42-24.23q-23.54-23.55-41.73-43.33Q1330,983.16,1317.14,994.83Z"/><path d="M1580.94,997.63l-10.09-9.29q15.23-21.17,19.39-25.72-6.56-6.93-20-20.41-17.84-17.84-52.21-50.63t-45.47-43.5l-20.94,19-12.68-9.9q8.31-7.92,25.32-24.93,17.4-17.41,26.1-25.72l10.32,9.14q-2,4.73-7.83,11.15t-7.23,8.2q6.14,5,28.63,27.25t49.63,49.44q27.14,27.15,39,38.25,3.77-2.57,13.45-10.68t12.27-9.9l9.88,10.69q-6.12,5.73-19,18.59-6.73,6.74-19.88,20.08T1580.94,997.63Z"/></g></g></g></svg>