<svg xmlns="http://www.w3.org/2000/svg" viewBox="0 0 450 110">
    <path fill="#fff" d="M84.2 51.14c-.12-12.12 9.96-18.05 10.4-18.33-5.68-8.32-14.53-9.44-17.61-9.52-7.4-.8-14.61 4.44-18.41 4.44-3.84 0-9.68-4.36-15.93-4.24-8.08.12-15.61 4.8-19.77 12.04-8.56 14.81-2.16 36.53 6 48.5 4.08 5.84 8.88 12.4 15.13 12.16 6.12-.24 8.4-3.92 15.81-3.92 7.32 0 9.48 3.92 15.85 3.76 6.56-.12 10.72-5.88 14.69-11.8 4.72-6.72 6.64-13.32 6.72-13.64-.12-.04-12.76-4.89-12.88-19.45zM72.15 15.41c3.28-4.12 5.52-9.72 4.92-15.41-4.76.2-10.72 3.28-14.17 7.32-3.04 3.56-5.76 9.36-5.04 14.85 5.33.4 10.85-2.68 14.29-6.76zm100.8 79.94h-8.56l-4.68-14.73h-16.29l-4.48 14.73h-8.32l16.17-50.18h9.96c-.05.01 16.2 50.18 16.2 50.18zm-14.69-20.92-4.24-13.08c-.44-1.32-1.28-4.48-2.52-9.44h-.16c-.48 2.12-1.28 5.28-2.4 9.44l-4.16 13.08h13.48zm56.14 2.36c0 6.16-1.68 11-5 14.61-3 3.16-6.72 4.76-11.16 4.76-4.8 0-8.24-1.72-10.32-5.12V110h-8.04V71.03c0-3.88-.12-7.84-.28-11.88h7.08l.44 5.72h.16c2.68-4.32 6.76-6.48 12.2-6.48 4.28 0 7.84 1.68 10.68 5.04 2.8 3.43 4.24 7.88 4.24 13.36zm-8.2.32c0-3.52-.8-6.44-2.4-8.72-1.72-2.36-4.08-3.56-7-3.56-2 0-3.8.68-5.4 1.96-1.6 1.32-2.68 3.04-3.16 5.16-.24.8-.36 1.6-.36 2.44v6.04c0 2.64.8 4.84 2.4 6.68 1.6 1.8 3.72 2.72 6.28 2.72 3.04 0 5.4-1.16 7.08-3.48 1.72-2.36 2.56-5.44 2.56-9.24zm49.82-.32c0 6.16-1.68 11-5 14.61-3 3.16-6.72 4.76-11.16 4.76-4.8 0-8.24-1.72-10.32-5.12V110h-8.04V71.03c0-3.88-.12-7.84-.28-11.88h7.08l.44 5.72h.16c2.68-4.32 6.76-6.48 12.2-6.48 4.28 0 7.84 1.68 10.68 5.04 2.8 3.43 4.24 7.88 4.24 13.36zm-8.2.32c0-3.52-.8-6.44-2.4-8.72-1.72-2.36-4.08-3.56-7-3.56-2 0-3.8.68-5.4 1.96-1.6 1.32-2.68 3.04-3.16 5.16-.24 1-.36 1.8-.36 2.44v6.04c0 2.64.8 4.84 2.4 6.68 1.6 1.8 3.72 2.72 6.28 2.72 3.04 0 5.4-1.16 7.08-3.48 1.72-2.36 2.56-5.44 2.56-9.24zm54.74 4.16c0 4.28-1.48 7.76-4.44 10.44-3.28 2.92-7.84 4.4-13.68 4.4-5.4 0-9.72-1.04-13-3.12l1.84-6.68c3.52 2.08 7.4 3.12 11.6 3.12 3.04 0 5.4-.68 7.08-2.04 1.68-1.36 2.52-3.2 2.52-5.48 0-2.04-.72-3.76-2.08-5.12-1.4-1.4-3.68-2.68-6.92-3.88-8.8-3.28-13.16-8.08-13.16-14.37 0-4.12 1.56-7.48 4.64-10.12s7.2-3.96 12.32-3.96c4.56 0 8.36.8 11.4 2.4l-2 6.56c-2.84-1.52-6.04-2.32-9.64-2.32-2.84 0-5.04.68-6.64 2.08-1.32 1.24-2 2.76-2 4.56 0 1.96.76 3.64 2.32 4.92 1.32 1.2 3.76 2.48 7.28 3.88 4.32 1.76 7.48 3.76 9.52 6.08 2 2.29 3.04 5.17 3.04 8.65zm26.65-16.09h-8.84v17.57c0 4.48 1.56 6.68 4.68 6.68 1.44 0 2.64-.12 3.56-.36l.24 6.12c-1.6.6-3.68.88-6.24.88-3.16 0-5.64-.96-7.44-2.92-1.8-1.92-2.68-5.2-2.68-9.76V65.14h-5.28V59.1h5.28v-6.64l7.88-2.4v9h8.84v6.12zm39.89 11.77c0 5.56-1.6 10.12-4.76 13.68-3.32 3.68-7.72 5.52-13.24 5.52-5.32 0-9.52-1.76-12.68-5.28-3.16-3.52-4.72-7.96-4.72-13.32 0-5.6 1.64-10.2 4.88-13.77 3.24-3.56 7.64-5.36 13.12-5.36 5.32 0 9.56 1.76 12.8 5.28 3.04 3.44 4.6 7.85 4.6 13.25zm-8.36.2c0-3.32-.72-6.16-2.16-8.52-1.68-2.88-4.08-4.32-7.24-4.32-3.2 0-5.68 1.44-7.36 4.32-1.44 2.36-2.16 5.28-2.16 8.68 0 3.32.72 6.16 2.16 8.52 1.72 2.88 4.16 4.32 7.32 4.32 3.08 0 5.48-1.48 7.24-4.36 1.48-2.48 2.2-5.32 2.2-8.64zm34.49-10.93c-.84-.16-1.68-.24-2.52-.24-2.84 0-5 1.08-6.56 3.2-1.32 1.88-2 4.28-2 7.16v18.97h-8.04V70.55c0-3.8-.08-7.6-.24-11.4h7l.28 6.92h.24c.84-2.36 2.2-4.28 4-5.72 1.68-1.24 3.72-1.92 5.8-1.92.76 0 1.4.04 2 .16l.04 7.63zm35.93 9.33c.04 1.24-.08 2.44-.28 3.64h-24.13c.08 3.56 1.24 6.32 3.48 8.2 2.04 1.68 4.64 2.52 7.88 2.52 3.56 0 6.84-.56 9.76-1.72l1.24 5.56c-3.44 1.48-7.48 2.24-12.12 2.24-5.6 0-10-1.64-13.2-4.96-3.2-3.28-4.8-7.72-4.8-13.28 0-5.44 1.48-10 4.48-13.6 3.12-3.88 7.32-5.8 12.64-5.8 5.2 0 9.16 1.92 11.84 5.8 2.17 3.07 3.21 6.88 3.21 11.4zm-7.64-2.08c.04-2.4-.48-4.44-1.56-6.16-1.4-2.24-3.52-3.36-6.4-3.36-2.64 0-4.76 1.08-6.4 3.28-1.32 1.72-2.12 3.84-2.36 6.24h16.72zM141.06 27.41c-2.24 0-4.16-.12-5.76-.28V2.88c2.24-.36 4.52-.52 6.8-.52 9.2 0 13.44 4.52 13.44 11.92 0 8.53-5 13.13-14.48 13.13zm1.36-21.93c-1.24 0-2.32.08-3.2.24v18.45c.48.08 1.4.12 2.68.12 6.04 0 9.48-3.44 9.48-9.88 0-5.77-3.12-8.93-8.96-8.93zm26.37 22.13c-5.2 0-8.56-3.88-8.56-9.16 0-5.48 3.44-9.4 8.84-9.4 5.12 0 8.56 3.68 8.56 9.12 0 5.56-3.52 9.44-8.84 9.44zm.16-15.65c-2.84 0-4.68 2.68-4.68 6.4 0 3.64 1.88 6.32 4.64 6.32s4.64-2.84 4.64-6.4c0-3.63-1.84-6.32-4.6-6.32zm38.33-2.52-5.56 17.77h-3.64l-2.32-7.72c-.56-1.88-1.04-3.8-1.44-5.76h-.08c-.28 1.92-.84 3.88-1.44 5.76l-2.4 7.72h-3.64l-5.24-17.77h4.04l2 8.44c.48 2 .88 3.92 1.2 5.72h.08c.28-1.48.76-3.36 1.48-5.68l2.52-8.48h3.2l2.4 8.32c.6 2 1.04 4 1.44 5.84h.12c.24-1.84.64-3.76 1.2-5.84l2.16-8.32h3.92zm20.45 17.77h-3.96v-10.2c0-3.16-1.2-4.72-3.6-4.72-2.36 0-3.96 2-3.96 4.36v10.56h-3.96V14.53c0-1.56-.04-3.24-.16-5.08h3.48l.2 2.76h.12c1.08-1.88 3.2-3.12 5.64-3.12 3.72 0 6.2 2.84 6.2 7.48v10.64zm10.92 0h-3.96V1.28h3.96v25.93zm14.41.4c-5.2 0-8.56-3.88-8.56-9.16 0-5.48 3.44-9.4 8.84-9.4 5.12 0 8.56 3.68 8.56 9.12 0 5.56-3.56 9.44-8.84 9.44zm.12-15.65c-2.84 0-4.68 2.68-4.68 6.4 0 3.64 1.88 6.32 4.64 6.32 2.8 0 4.64-2.84 4.64-6.4 0-3.63-1.8-6.32-4.6-6.32zm24.29 15.25-.28-2.04h-.12c-1.2 1.64-2.96 2.44-5.2 2.44-3.2 0-5.44-2.24-5.44-5.24 0-4.4 3.8-6.64 10.4-6.64v-.32c0-2.36-1.24-3.52-3.68-3.52-1.76 0-3.28.44-4.64 1.32l-.8-2.6c1.64-1.04 3.68-1.52 6.12-1.52 4.64 0 7 2.44 7 7.36v6.56c0 1.8.08 3.2.24 4.24l-3.6-.04zm-.52-8.84c-4.4 0-6.6 1.08-6.6 3.6 0 1.88 1.12 2.76 2.72 2.76 2 0 3.88-1.52 3.88-3.6v-2.76zm23 8.84-.2-2.84h-.12c-1.08 2.12-3 3.24-5.68 3.24-4.28 0-7.44-3.76-7.44-9.08 0-5.56 3.28-9.48 7.8-9.48 2.36 0 4.08.8 5 2.4h.08V1.28h3.96v21.13c0 1.72.04 3.32.16 4.8h-3.56zm-.56-10.48c0-2.48-1.64-4.6-4.16-4.6-2.92 0-4.72 2.6-4.72 6.24 0 3.6 1.84 6.04 4.64 6.04 2.48 0 4.24-2.16 4.24-4.72v-2.96zm29.01 10.88c-5.2 0-8.56-3.88-8.56-9.16 0-5.48 3.44-9.4 8.84-9.4 5.12 0 8.56 3.68 8.56 9.12.05 5.56-3.51 9.44-8.84 9.44zm.17-15.65c-2.84 0-4.68 2.68-4.68 6.4 0 3.64 1.88 6.32 4.64 6.32 2.8 0 4.64-2.84 4.64-6.4 0-3.63-1.8-6.32-4.6-6.32zm29.97 15.25h-3.96v-10.2c0-3.16-1.2-4.72-3.6-4.72-2.36 0-3.96 2-3.96 4.36v10.56h-3.96V14.53c0-1.56-.04-3.24-.16-5.08h3.48l.2 2.76h.12c1.04-1.88 3.2-3.12 5.64-3.12 3.72 0 6.2 2.84 6.2 7.48v10.64zm26.57-14.81h-4.36v8.64c0 2.2.76 3.28 2.28 3.28.68 0 1.28-.08 1.76-.2l.12 3c-.76.28-1.8.44-3.08.44-3.12 0-4.96-1.72-4.96-6.2V12.4h-2.6V9.44h2.6V6.16L380.74 5v4.44h4.36c.01 0 .01 2.96.01 2.96zm20.92 14.81h-3.96V17.09c0-3.2-1.2-4.8-3.6-4.8-2.04 0-3.96 1.4-3.96 4.2v10.72h-3.92V1.28h3.96v10.68h.08c1.24-1.92 3.04-2.88 5.36-2.88 3.76 0 6.08 2.92 6.08 7.56l-.04 10.57zm21.41-7.96H415.6c.08 3.36 2.32 5.28 5.6 5.28 1.76 0 3.36-.28 4.8-.84l.6 2.76c-1.68.72-3.64 1.08-5.96 1.08-5.56 0-8.84-3.52-8.84-8.96S415.16 9 420.2 9c4.56 0 7.4 3.36 7.4 8.44 0 .65-.04 1.25-.16 1.81zm-3.6-2.8c0-2.76-1.4-4.68-3.92-4.68-2.28 0-4.08 1.96-4.32 4.68h8.24z"/>
</svg>