<svg xmlns="http://www.w3.org/2000/svg" viewBox="0 0 450 110">
    <path fill="#fff" d="M225.93 59.95c-9.1 0-16.51 6.92-16.51 16.45 0 9.47 7.41 16.45 16.51 16.45 9.1 0 16.51-6.98 16.51-16.45 0-9.53-7.41-16.45-16.51-16.45zm0 26.42c-4.98 0-9.28-4.11-9.28-9.97 0-5.92 4.3-9.97 9.28-9.97 4.98 0 9.28 4.05 9.28 9.97 0 5.86-4.3 9.97-9.28 9.97zm-36.02-26.42c-9.1 0-16.51 6.92-16.51 16.45 0 9.47 7.41 16.45 16.51 16.45 9.1 0 16.51-6.98 16.51-16.45 0-9.53-7.41-16.45-16.51-16.45zm0 26.42c-4.98 0-9.28-4.11-9.28-9.97 0-5.92 4.3-9.97 9.28-9.97 4.98 0 9.28 4.05 9.28 9.97 0 5.86-4.29 9.97-9.28 9.97zM147.07 65v6.98h16.7c-.5 3.93-1.81 6.79-3.8 8.79-2.43 2.43-6.23 5.11-12.9 5.11-10.28 0-18.32-8.29-18.32-18.57 0-10.28 8.04-18.57 18.32-18.57 5.55 0 9.6 2.18 12.59 4.98l4.92-4.92c-4.17-3.99-9.72-7.04-17.51-7.04-14.08 0-25.92 11.46-25.92 25.55 0 14.08 11.84 25.55 25.92 25.55 7.6 0 13.33-2.49 17.82-7.16 4.61-4.61 6.04-11.09 6.04-16.32 0-1.62-.12-3.12-.37-4.36h-23.49zm175.22 5.42c-1.37-3.68-5.55-10.47-14.08-10.47-8.47 0-15.51 6.67-15.51 16.45 0 9.22 6.98 16.45 16.32 16.45 7.54 0 11.9-4.61 13.71-7.29l-5.61-3.74c-1.87 2.74-4.42 4.55-8.1 4.55s-6.29-1.68-7.98-4.98l21.99-9.1-.74-1.87zm-22.43 5.48c-.19-6.36 4.92-9.6 8.6-9.6 2.87 0 5.3 1.43 6.11 3.49l-14.71 6.11zm-17.88 15.95h7.23V43.5h-7.23v48.35zm-11.84-28.22h-.25c-1.62-1.93-4.74-3.68-8.66-3.68-8.22 0-15.76 7.23-15.76 16.51 0 9.22 7.54 16.39 15.76 16.39 3.93 0 7.04-1.74 8.66-3.74h.25v2.37c0 6.29-3.36 9.66-8.79 9.66-4.42 0-7.17-3.18-8.29-5.86l-6.29 2.62c1.81 4.36 6.6 9.72 14.58 9.72 8.47 0 15.64-4.98 15.64-17.13V60.95h-6.85v2.68zm-8.29 22.74c-4.98 0-9.16-4.17-9.16-9.91 0-5.79 4.17-10.03 9.16-10.03 4.92 0 8.79 4.24 8.79 10.03 0 5.74-3.86 9.91-8.79 9.91zm94.3-42.86h-17.29v48.35h7.22V73.54h10.08c8 0 15.86-5.79 15.86-15.02-.01-9.22-7.87-15.01-15.87-15.01zm.18 23.3h-10.26V50.23h10.26c5.4 0 8.46 4.47 8.46 8.29 0 3.75-3.06 8.29-8.46 8.29zm44.6-6.95c-5.22 0-10.64 2.3-12.88 7.4l6.41 2.67c1.37-2.67 3.92-3.55 6.59-3.55 3.73 0 7.53 2.24 7.59 6.22v.5c-1.31-.75-4.11-1.87-7.53-1.87-6.9 0-13.93 3.79-13.93 10.89 0 6.47 5.66 10.64 12 10.64 4.85 0 7.53-2.18 9.21-4.73h.25v3.73h6.97V73.24c0-8.59-6.41-13.38-14.68-13.38zm-.87 26.5c-2.36 0-5.66-1.18-5.66-4.11 0-3.73 4.11-5.16 7.65-5.16 3.17 0 4.67.68 6.59 1.62-.56 4.48-4.41 7.65-8.58 7.65zm40.93-25.44-8.27 20.96h-.25l-8.58-20.96h-7.78l12.88 29.3-7.34 16.3h7.53l19.84-45.59h-8.03zm-65 30.93h7.22V43.51h-7.22v48.34z"/>
    <path fill="#ca4539" d="M42.54 50.95 1.37 94.65c0 .01 0 .02.01.03 1.26 4.74 5.6 8.24 10.74 8.24 2.06 0 3.99-.56 5.64-1.53l.13-.08 46.35-26.74-21.7-23.62z"/>
    <path fill="#eaba2d" d="m84.2 43.51-.04-.03-20.01-11.6-22.54 20.06 22.62 22.62 19.9-11.48c3.49-1.88 5.86-5.56 5.86-9.8 0-4.22-2.34-7.88-5.79-9.77z"/>
    <path fill="#5c83ef" d="M1.36 11.71c-.25.91-.38 1.87-.38 2.86v77.22c0 .99.13 1.95.38 2.86l42.59-42.58L1.36 11.71z"/>
    <path fill="#67a559" d="m42.85 53.18 21.31-21.31-46.3-26.83c-1.68-1.01-3.65-1.59-5.75-1.59-5.14 0-9.48 3.5-10.75 8.25v.01l41.49 41.47z"/><g>
    <path fill="#fff" d="M134.5 27.09c-6.92 0-12.55-5.54-12.55-12.35s5.63-12.35 12.55-12.35c3.34 0 6.48 1.28 8.85 3.59l-2.26 2.42c-1.76-1.72-4.1-2.66-6.59-2.66-5.12 0-9.28 4.04-9.28 9s4.16 9 9.28 9c4.11 0 7.7-2.68 8.88-6.37h-8.9v-3.35h12.69l-.17 1.83c-.58 6.41-5.96 11.24-12.5 11.24zM152.82 5.96v6.49h9.45v3.27h-9.45v7.8h10.37v3.27h-13.64V2.7h13.64v3.26zM182.7 2.7v3.26h-6.41v19.85h-3.26V5.96h-6.41V2.7zM217.46 2.7v3.26h-6.41v19.85h-3.26V5.96h-6.41V2.7zM194.12 2.88h3.27v22.94h-3.27zM238.86 25.81c-6.32 0-11.47-5.15-11.47-11.47s5.14-11.47 11.47-11.47 11.47 5.15 11.47 11.47-5.14 11.47-11.47 11.47zm0-19.96c-4.68 0-8.49 3.81-8.49 8.49s3.81 8.49 8.49 8.49 8.49-3.81 8.49-8.49-3.8-8.49-8.49-8.49zM271.31 2.88v22.93h-3L256.94 9.05v16.76h-3.27V2.88h3.01l11.36 16.79V2.88z"/></g>
</svg>