<?xml version="1.0" encoding="UTF-8"?>
<svg xmlns="http://www.w3.org/2000/svg" version="1.1" viewBox="0 0 633.5 197.8">
  <defs>
    <style>
      .cls-1 {
        fill: #fff;
      }

      .cls-2 {
        fill: #00b1c4;
      }
    </style>
  </defs>
  <!-- Generator: Adobe Illustrator 28.7.8, SVG Export Plug-In . SVG Version: 1.2.0 Build 200)  -->
  <g>
    <g id="Layer_1">
      <g>
        <path class="cls-2" d="M353.3,119.5c16.1,0,29.2,13.3,29.2,29.7v19c0,16.4-13.1,29.7-29.2,29.7h-43.6c-16.1,0-29.2-13.3-29.2-29.7v-11.7c0-20.4-16.3-36.9-36.4-36.9H36.4C16.3,119.5,0,103,0,82.6v-45.7C0,16.5,16.3,0,36.4,0h207.6c20.1,0,36.4,16.5,36.4,36.9v45.7c0,20.4,16.3,36.9,36.4,36.9h36.5Z"/>
        <path class="cls-1" d="M62.7,70.7c0-2.8-3.4-3.9-7.8-5.3l-8.8-2.7c-6.4-1.9-12-6.5-12-14.4s8.5-16.1,20-16.1,19.4,3.1,19.4,8.9-1.8,5.8-5,5.8-3.1-.6-4.8-1.1c-2.5-.9-5.5-2-9.6-2s-7.6,1.3-7.6,4,1.9,3.6,6,4.8l9.9,3.1c6.7,2.1,12.7,6.1,12.7,15.4s-9.2,16.3-20.9,16.3-21.4-3.1-21.4-8.9,2-5.8,5.5-5.8,3.5.5,5.4,1.1c2.7.9,5.8,2,10.5,2s8.5-1.8,8.5-5.2Z"/>
        <path class="cls-1" d="M122.7,38.6c0-4,2.1-6.1,6-6.1s6.1,2.1,6.1,6.1v23.4c0,15.4-10.2,25.4-24,25.4s-23.9-9.9-23.9-25.4v-23.4c0-4,2.1-6.1,6-6.1s6.1,2.1,6.1,6.1v23.4c0,8.3,5,13.3,11.8,13.3s11.9-5,11.9-13.3v-23.4Z"/>
        <path class="cls-1" d="M172.2,70.1h-11.1v10.9c0,4-2.1,6.1-6.1,6.1s-6-2.1-6-6.1v-41.9c0-4.1,2.1-6.1,6-6.1h17.4c11.6,0,19.7,7.7,19.7,18.9s-3.1,12-8.3,14.8l5.6,11.4c.6,1.1.8,2.2.8,3.3,0,3.6-4,5.8-7,5.8s-3.8-1.3-5-3.9l-6-13.1ZM161.1,44.7v14.3h10.2c4.6,0,8.3-2.1,8.3-7.1s-3.6-7.2-8.3-7.2h-10.2Z"/>
        <path class="cls-1" d="M217.3,67.8v13.2c0,4-2,6.1-6,6.1s-6-2.1-6-6.1v-41.9c0-4.1,2.1-6.1,6-6.1h29c3.9,0,5.7,2,5.7,5.8s-1.9,5.9-5.7,5.9h-23v11.4h14.4c3.9,0,5.7,2,5.7,5.9s-1.9,5.8-5.7,5.8h-14.4Z"/>
        <path class="cls-2" d="M340.1,75.2c3.4,0,5.7-.9,7.6-1.7,1.4-.6,2.6-1,4.1-1,3.4,0,5.4,3.1,5.4,6.7,0,5.4-9.7,8.4-16.4,8.4-15.7,0-28.4-10.7-28.4-28.2s12.6-28.1,28.4-28.1,16.4,3,16.4,8.4-1.9,6.7-5.4,6.7-2.7-.5-4.1-1c-1.9-.8-4.2-1.7-7.6-1.7-7.6,0-14.9,5.7-14.9,15.8s7.3,15.9,14.9,15.9Z"/>
        <path class="cls-2" d="M390.7,31.2c15.7,0,27.8,12.3,27.8,28.2s-12.4,28.1-27.8,28.1-27.7-12.2-27.7-28.1,12.4-28.2,27.7-28.2ZM390.7,75.2c8.3,0,15.1-7.1,15.1-15.8s-6.9-15.9-15.1-15.9-15,7.2-15,15.9,6.7,15.8,15,15.8Z"/>
        <path class="cls-2" d="M463.4,37.7c0-4.1,2.1-6.2,6.1-6.2s6.2,2.1,6.2,6.2v43.3c0,4.1-2.1,6.2-6.2,6.2s-4.2-1-5.6-2.8l-24.6-30.6v27.2c0,4.1-2.1,6.2-6.2,6.2s-6.1-2.1-6.1-6.2v-43.3c0-4.1,2.1-6.2,6.1-6.2s4.1.9,6.1,3.3l24.2,30.2v-27.3Z"/>
        <path class="cls-2" d="M523.6,32c3.9,0,5.9,2,5.9,5.9s-1.9,6-5.9,6h-24.1v9.3h15c3.9,0,5.9,2,5.9,5.9s-1.9,5.9-5.9,5.9h-15v9.6h24.1c3.9,0,5.9,2,5.9,6s-1.9,5.9-5.9,5.9h-30.3c-4,0-6.1-2.1-6.1-6.2v-42.2c0-4.1,2.1-6.2,6.1-6.2h30.3Z"/>
        <path class="cls-2" d="M560.3,68.1c-4.9,5.7-9.8,11.5-14.8,17.2-1.5,1.6-2.7,2.2-4.3,2.2-2.9,0-6.4-3.2-6.4-6s.5-2.7,1.7-4.1l15.9-18.5-14.8-17.2c-1.2-1.4-1.8-2.9-1.8-4.2,0-3,3.6-6.3,6.6-6.3s3,.7,4.5,2.4l13.9,16.2c4.8-5.4,9.4-10.9,14.1-16.4,1.4-1.4,2.8-2.2,4.3-2.2,2.9,0,6.4,3.2,6.4,6s-.6,2.6-1.7,4.1l-15.1,17.7,15.5,18c1.2,1.4,1.9,2.9,1.9,4.2,0,3-3.6,6.3-6.6,6.3s-2.9-.7-4.4-2.4l-14.7-17Z"/>
        <path class="cls-2" d="M605,81v-37h-10.2c-4,0-5.9-2-5.9-6s1.9-5.9,5.9-5.9h32.9c3.9,0,5.9,2,5.9,5.9s-1.9,6-5.9,6h-10.3v37c0,4.1-2.1,6.2-6.1,6.2s-6.2-2.1-6.2-6.2Z"/>
      </g>
    </g>
  </g>
</svg>